<?xml version="1.0" standalone="no"?>
<!DOCTYPE svg PUBLIC "-//W3C//DTD SVG 20010904//EN"
 "http://www.w3.org/TR/2001/REC-SVG-20010904/DTD/svg10.dtd">
<svg version="1.0" xmlns="http://www.w3.org/2000/svg"
 width="300.000000pt" height="300.000000pt" viewBox="0 0 300.000000 300.000000"
 preserveAspectRatio="xMidYMid meet">
<metadata>
Created by potrace 1.11, written by Peter Selinger 2001-2013
</metadata>
<g transform="translate(0.000000,300.000000) scale(0.100000,-0.100000)"
fill="#000000" stroke="none">
<path d="M0 2500 l0 -500 273 0 c273 0 273 0 324 -26 30 -14 77 -53 111 -89
100 -107 142 -220 142 -387 0 -115 -13 -182 -50 -263 -40 -87 -80 -137 -154
-189 l-64 -47 -291 3 -291 3 0 -502 0 -503 1500 0 1500 0 0 500 0 500 -262 0
-261 0 -36 27 c-78 60 -126 143 -137 237 l-7 56 85 0 85 0 7 -49 c9 -69 53
-126 123 -158 76 -35 243 -44 338 -18 l65 17 0 137 0 136 -213 39 c-229 41
-292 60 -356 106 -65 47 -86 98 -86 205 0 102 17 146 77 201 71 66 59 64 330
64 l248 0 0 500 0 500 -1500 0 -1500 0 0 -500z m1850 -555 l0 -55 -330 0 -330
0 0 -155 0 -155 293 -2 292 -3 3 -72 3 -73 -295 0 -296 0 -2 -212 -3 -213 -72
-3 -73 -3 0 501 0 500 405 0 405 0 0 -55z m270 -445 l0 -501 -72 3 -73 3 -3
498 -2 497 75 0 75 0 0 -500z"/>
<path d="M162 1899 c-29 -5 -78 -21 -108 -36 l-54 -26 0 -342 0 -341 53 -27
c76 -38 147 -50 257 -44 119 6 192 33 259 93 129 116 165 355 81 529 -74 153
-268 230 -488 194z"/>
<path d="M2641 1895 c-101 -29 -147 -82 -138 -162 6 -55 35 -87 96 -107 38
-13 376 -86 395 -86 3 0 6 70 6 156 l0 155 -57 26 c-72 33 -217 42 -302 18z"/>
</g>
</svg>
